<svg width="22" height="22" viewBox="0 0 22 22" fill="none" xmlns="http://www.w3.org/2000/svg">
<g clip-path="url(#clip0_55_2710)">
<path d="M10.9996 20.1665C16.0622 20.1665 20.1662 16.0625 20.1662 10.9999C20.1662 5.93734 16.0622 1.83331 10.9996 1.83331C5.93704 1.83331 1.83301 5.93734 1.83301 10.9999C1.83301 16.0625 5.93704 20.1665 10.9996 20.1665Z" stroke="#8B95A1" stroke-width="1.83332" stroke-linecap="round" stroke-linejoin="round"/>
<path d="M8.33203 8.24996C8.54754 7.63733 8.97292 7.12073 9.53282 6.79168C10.0927 6.46262 10.751 6.34233 11.3911 6.45213C12.0312 6.56192 12.6118 6.8947 13.03 7.39153C13.4482 7.88837 13.6771 8.51719 13.6762 9.16662C13.6762 10.9999 10.9262 11.9166 10.9262 11.9166" stroke="#8B95A1" stroke-width="1.83332" stroke-linecap="round" stroke-linejoin="round"/>
<path d="M11 15.5833H11.01" stroke="#8B95A1" stroke-width="1.83332" stroke-linecap="round" stroke-linejoin="round"/>
</g>
<defs>
<clipPath id="clip0_55_2710">
<rect width="21.9999" height="21.9999" fill="white"/>
</clipPath>
</defs>
</svg>
