<svg width="28" height="28" viewBox="0 0 28 28" fill="none" xmlns="http://www.w3.org/2000/svg">
<path d="M13.9986 2.33313C13.0705 2.33313 12.1803 2.70184 11.524 3.35814C10.8677 4.01444 10.499 4.90458 10.499 5.83273V13.9985C10.499 14.9266 10.8677 15.8168 11.524 16.4731C12.1803 17.1294 13.0705 17.4981 13.9986 17.4981C14.9268 17.4981 15.8169 17.1294 16.4732 16.4731C17.1295 15.8168 17.4982 14.9266 17.4982 13.9985V5.83273C17.4982 4.90458 17.1295 4.01444 16.4732 3.35814C15.8169 2.70184 14.9268 2.33313 13.9986 2.33313Z" stroke="#8B95A1" stroke-width="2.33307" stroke-linecap="round" stroke-linejoin="round"/>
<path d="M22.1645 11.6654V13.9985C22.1645 16.1642 21.3042 18.2412 19.7728 19.7725C18.2414 21.3039 16.1644 22.1642 13.9987 22.1642C11.8331 22.1642 9.75607 21.3039 8.2247 19.7725C6.69332 18.2412 5.83301 16.1642 5.83301 13.9985V11.6654" stroke="#8B95A1" stroke-width="2.33307" stroke-linecap="round" stroke-linejoin="round"/>
<path d="M13.998 22.1642V25.6638" stroke="#8B95A1" stroke-width="2.33307" stroke-linecap="round" stroke-linejoin="round"/>
</svg>
